<mxfile host="app.diagrams.net" modified="2024-03-16T14:22:09.754Z" agent="Mozilla/5.0 (Windows NT 10.0; Win64; x64) AppleWebKit/537.36 (KHTML, like Gecko) Chrome/122.0.0.0 Safari/537.36 Edg/122.0.0.0" version="24.0.7" etag="7lK5DrWxsb-TYy0Z1V5F" type="github">
  <diagram name="第 1 页" id="p651jWaBnr6e4khlEeQw">
    <mxGraphModel>
      <root>
        <mxCell id="0" />
        <mxCell id="1" parent="0" />
      </root>
    </mxGraphModel>
  </diagram>
</mxfile>
